<svg width="16" height="16" viewBox="0 0 16 16" fill="none" xmlns="http://www.w3.org/2000/svg">
<path d="M12 2.66659H11.3333V1.99992C11.3333 1.63325 11.0333 1.33325 10.6667 1.33325C10.3 1.33325 10 1.63325 10 1.99992V2.66659H6V1.99992C6 1.63325 5.7 1.33325 5.33333 1.33325C4.96667 1.33325 4.66667 1.63325 4.66667 1.99992V2.66659H4C2.89333 2.66659 2 3.55992 2 4.66659V12.6666C2 13.7733 2.89333 14.6666 4 14.6666H12C13.1067 14.6666 14 13.7733 14 12.6666V4.66659C14 3.55992 13.1067 2.66659 12 2.66659ZM11.3333 12.6666H10C9.63333 12.6666 9.33333 12.3666 9.33333 11.9999C9.33333 11.6333 9.63333 11.3333 10 11.3333H11.3333C11.7 11.3333 12 11.6333 12 11.9999C12 12.3666 11.7 12.6666 11.3333 12.6666ZM12.6667 6.66659H3.33333V4.66659C3.33333 4.29992 3.63333 3.99992 4 3.99992H4.66667V4.66659C4.66667 5.03325 4.96667 5.33325 5.33333 5.33325C5.7 5.33325 6 5.03325 6 4.66659V3.99992H10V4.66659C10 5.03325 10.3 5.33325 10.6667 5.33325C11.0333 5.33325 11.3333 5.03325 11.3333 4.66659V3.99992H12C12.3667 3.99992 12.6667 4.29992 12.6667 4.66659V6.66659Z" fill="#AFAFAF"/>
</svg>
