<svg width="33" height="32" viewBox="0 0 33 32" fill="none" xmlns="http://www.w3.org/2000/svg">
<path d="M15.3317 26.6667L9.99833 21.3333M3.33167 20L8.11833 24.7867C9.15833 25.8267 10.8517 25.8267 11.8917 24.7867L12.6783 24M23.9983 6.66666H20.665M23.9983 6.66666C25.105 6.66666 25.9983 5.77333 25.9983 4.66666C25.9983 3.56 25.105 2.66666 23.9983 2.66666H20.665V6.66666M23.9983 6.66666C25.105 6.66666 25.9983 7.56 25.9983 8.66666C25.9983 9.77333 25.105 10.6667 23.9983 10.6667H20.665V6.66666M29.9983 26.6667L28.2783 28.3867C27.6783 28.9867 26.8517 29.3333 25.9983 29.3333C25.145 29.3333 24.3317 29 23.7183 28.3867L9.99833 14.6667L11.0117 13.6533C11.5983 13.0667 12.4917 12.9067 13.2517 13.24C17.2517 15.0533 21.5983 16 25.985 16L29.985 26.6667H29.9983Z" stroke="#FFFFFF" stroke-width="2.5" stroke-linecap="round" stroke-linejoin="round"/>
</svg>
